<?xml version="1.0" encoding="UTF-8"?>
<svg id="Layer_1" data-name="Layer 1" xmlns="http://www.w3.org/2000/svg" xmlns:xlink="http://www.w3.org/1999/xlink" viewBox="0 0 235.39 225.91">
  <defs>
    <style>
      .cls-1, .cls-2 {
        fill: #fff;
        font-family: FreestyleScript-Regular, 'Freestyle Script';
        font-size: 34px;
        stroke: #fff;
        stroke-miterlimit: 10;
      }

      .cls-2 {
        stroke-width: .5px;
      }

      .cls-3 {
        clip-path: url(#clippath-1);
      }

      .cls-4 {
        clip-rule: evenodd;
      }

      .cls-4, .cls-5, .cls-6 {
        fill: none;
      }

      .cls-7 {
        fill: #d1d1d1;
      }

      .cls-7, .cls-8, .cls-9 {
        fill-rule: evenodd;
      }

      .cls-8 {
        fill: #f8ba56;
      }

      .cls-10 {
        clip-path: url(#clippath-2);
      }

      .cls-5 {
        stroke-width: 1.5px;
      }

      .cls-5, .cls-6 {
        stroke: #000;
        stroke-miterlimit: 8;
      }

      .cls-6 {
        stroke-width: 1.5px;
      }

      .cls-11 {
        clip-path: url(#clippath);
      }
    </style>
    <clipPath id="clippath">
      <polygon class="cls-4" points="200.11 89.24 171.59 65.09 129.27 115.08 157.78 139.23 200.11 89.24 200.11 89.24"/>
    </clipPath>
    <clipPath id="clippath-1">
      <polygon class="cls-4" points="200.11 89.24 171.59 65.09 129.27 115.08 157.78 139.23 200.11 89.24 200.11 89.24"/>
    </clipPath>
    <clipPath id="clippath-2">
      <polygon class="cls-4" points="200.11 89.24 171.59 65.09 129.27 115.08 157.78 139.23 200.11 89.24 200.11 89.24"/>
    </clipPath>
  </defs>
  <g>
    <path d="M113.64,118.89c1.57-3.38,2.91-6.86,3.58-10.54.76-4.13,1-8.39.98-12.59-.03-4.48-.49-8.92-1.2-13.35-.64-3.99-1.37-8.01-1.1-12.06.39-5.71,2.53-11.64,6.22-16.05,1.85-2.21,4.09-4.06,6.72-5.25,1.86-.84,3.76-1.24,5.58-1.35,7.82-.48,15.09,3.3,19.55,9.69,1.1,1.57,3.7.07,2.59-1.51-4.41-6.32-11.09-10.53-18.84-11.15-5.25-.42-10.29.97-14.46,4.26-4.91,3.87-8.06,9.81-9.51,15.81-.75,3.1-1.06,6.3-.85,9.48.31,4.83,1.45,9.57,1.92,14.38.52,5.34.49,10.74-.1,16.08-.49,4.43-1.8,8.59-3.68,12.63-.81,1.74,1.78,3.26,2.59,1.51h0Z"/>
    <path d="M146.59,62.58c5.42-7.58,17.54-9.83,25.32-4.45,3.98,2.72,7.25,7.21,6.69,12.32-1.24,4.41-1.94,8.51-1.74,13.1-.92-3.24-1.19-6.72-.85-10.1.09-1.13.4-2.36.47-3.24.05-3.95-2.96-7.57-6.17-9.67-7.14-4.47-17.07-2.89-23.72,2.04h0Z"/>
    <path d="M168.26,138.04c1.2-3.35,2.71-6.54,4.85-9.4,2.35-3.16,5.15-6.04,8.09-8.65,3.12-2.77,6.54-5.06,9.98-7.39,3.09-2.1,5.98-4.36,8.27-7.34,4.1-5.35,6.55-12.4,5.87-19.18-.5-5.03-2.67-9.48-6.13-13.11-5.25-5.51-12.7-8.42-20.3-7.66-1.9.19-1.92,3.19,0,3,6.48-.64,12.76,1.51,17.44,6.03,3.23,3.12,5.47,7.02,5.98,11.56.72,6.38-1.59,13.13-5.62,18.07-2.27,2.78-5.17,4.82-8.13,6.8-3.23,2.16-6.39,4.39-9.3,6.97-3.16,2.79-6.08,5.89-8.62,9.27-2.33,3.11-3.95,6.61-5.25,10.25-.65,1.82,2.25,2.6,2.89.8h0Z"/>
    <path d="M112.35,119.63c14.62,1.53,29,5.91,41.95,12.86,3.63,1.95,7.15,4.1,10.54,6.45,1.59,1.1,3.09-1.5,1.51-2.59-12.37-8.58-26.57-14.56-41.28-17.71-4.2-.9-8.45-1.56-12.72-2.01-1.92-.2-1.9,2.8,0,3h0Z"/>
    <path d="M110.74,118.28c.05,2.14-.5,3.99-1.71,5.73-1.02,1.48-2.23,2.81-3.37,4.21-.77.95-1.8,2.03-2.04,3.28-.32,1.64,1.16,2.58,2.5,3.04,1.89.64,3.95.81,5.91,1.13s3.89.86,5.85,1.27c2.8.59,5.66.86,8.46,1.5,8.76,2,17.13,5.77,24.5,10.89,2.06,1.42,4,3.03,6.12,4.36,1.31.83,4.14,2.4,5.26.53.67-1.12.73-2.73.98-3.98.33-1.71.61-3.62,1.42-5.19,1.33-2.53,2.92-4.96,3.96-7.65.17-.45-.01-1.16-.39-1.46h0c-.74-.59-1.83-.6-2.36.3-.12.21-.22.43-.33.65-.84,1.73,1.74,3.25,2.59,1.51.11-.22.2-.44.33-.65l-2.36.3h0c-.13-.49-.26-.97-.39-1.46.27-.71-.16.31-.24.48-.3.62-.6,1.24-.91,1.85-.64,1.29-1.3,2.58-2.04,3.81-1.53,2.56-1.95,5.49-2.52,8.37-.09.46-.34,1.06-.34,1.52,0,.21-.04.1-.02.11-.18-.12.82-.59.63-.47,1.45-.92.27,0,.28-.21,0-.02.23.05.02,0-.8-.19-.99-.31-1.8-.8-1.93-1.17-3.69-2.62-5.52-3.92-6.79-4.82-14.36-8.47-22.36-10.82-3.23-.95-6.5-1.56-9.82-2.07s-6.38-1.38-9.61-1.9c-1.11-.18-2.22-.34-3.31-.58-.2-.05-1.76-.61-1.77-.6.12-.08.24.79.14.45.13.44.11.3.03.34.17-.11.37-.63.49-.81.44-.63.94-1.22,1.43-1.81,1.27-1.53,2.61-3.05,3.66-4.75,1.21-1.95,1.7-4.24,1.64-6.52-.05-1.93-3.05-1.93-3,0h0Z"/>
  </g>
  <path class="cls-9" d="M17.4,181.02c0,2.12,22.44,4.9,50.13,4.9s34.65-2.42,50.13-4.9c15.48-2.47,32.57-4.97,49.39-5.16,16.82-.2,42.01.95,51.62,3.98-2.17,6.99-6.18,17.64-5.03,20.02.7,2.8.3,3.33,1.72,11.3-5.49-2.12-31.28-5.51-47.57-5.43s-33.55,3.04-50.13,5.96c-16.58,2.91-21.7,5.16-49.39,5.16s-39.02-1.75-47.57-4.36c-.12-3.5,2.33-7.54,2.21-11.04-1.84-6.81-3.67-13.62-5.51-20.43h0Z"/>
  <path class="cls-9" d="M16.62,178.68c.49-.89.71-1.88,1.47-2.68,8.56-9.09,50.37-14.95,99.41-14.95s91.57,5.3,99.41,14.95c.49.89,1.07.95,1.47,2.68.05-.8.55-1.41.14-2.39-7.22-14.16-67.18-17.34-101.02-17.42-33.84-.08-94.34,3.63-102.01,16.95-.25,1.2.94,2.5,1.14,2.86h0Z"/>
  <path d="M15.97,170.24c-.63-6.73-5.43-12-8.37-17.86C2.38,140.51.54,127.37.12,114.57c-.98-19.84,4.17-40.19,14.52-57.71C47.13,1,122.18-15.51,177.63,15.41c48.83,26.53,72.37,85.94,48.13,137.16-3.07,6.5-6.76,12.75-8.63,19.75-1.19-7.43,2-14.68,4.62-21.45C247.38,80.78,188.03,17.23,117.97,17.5c-45.15-.67-92.32,25.51-107.6,69.5-6.11,17.7-6.72,37.64-3.05,55.95.61,2.89,1.51,5.78,2.44,8.59,1.59,3.86,3.85,7.5,5.28,11.47.84,2.3,1.57,4.72,1.49,7.23h-.56Z"/>
  <text class="cls-2" transform="translate(48.53 211.39) rotate(6.16) scale(1.14 1)"><tspan x="0" y="0">A</tspan></text>
  <text class="cls-2" transform="translate(71.94 213.35) rotate(-.93) scale(1.14 1)"><tspan x="0" y="0">l</tspan></text>
  <text class="cls-2" transform="translate(86.49 212.7) rotate(-7.94) scale(1.14 1)"><tspan x="0" y="0">l</tspan></text>
  <text class="cls-1" transform="translate(100.56 210.47) rotate(-13.48) scale(1.14 1)"><tspan x="0" y="0">ô</tspan></text>
  <text class="cls-2" transform="translate(113.72 206.98) rotate(-13.42) scale(1.14 1)"><tspan x="0" y="0"> </tspan></text>
  <text class="cls-2" transform="translate(127.24 204.08) rotate(-9.51) scale(1.14 1)"><tspan x="0" y="0">C</tspan></text>
  <text class="cls-2" transform="translate(147.4 200.69) rotate(-7.02) scale(1.14 1)"><tspan x="0" y="0">h</tspan></text>
  <text class="cls-2" transform="translate(163.47 198.88) rotate(-2.31) scale(1.14 1)"><tspan x="0" y="0">e</tspan></text>
  <text class="cls-2" transform="translate(178.11 198.48) rotate(2.71) scale(1.14 1)"><tspan x="0" y="0">f</tspan></text>
  <g>
    <path class="cls-9" d="M146.59,118.04c-.7.15-1.09,1.08-.87,2.06s.96,1.66,1.66,1.5,1.09-1.08.87-2.06-.96-1.66-1.66-1.5h0ZM132.32,56.38c5.2-1.15,10.99,4.64,12.04,9.81,1.17,5.75-.83,9.52-2.87,12.21-.52,1.42-1.01,2.12-.66,4.52l.32,2.06c.84,3.69,1.86,7.39,2.99,11.95,1.34,5.07,2.78,10.15,4.35,15.25,1.78,8.46.91,7.95,1.19,10.07-.91.63-2.49,1.08-3.96.9-1.41-2.74-2.71-6.04-3.4-9.72-.72-5.29-1.71-10.44-2.76-15.54l-2.62-12.33-.56-1.64c-.38-1.61-1.77-2.77-3.03-3.72-3.78-1.06-6.75-4.91-7.83-9.84-1.45-6.57,1.6-12.82,6.8-13.97h0Z"/>
    <path class="cls-7" d="M129.72,69.08c-1.13-5.13.94-9.95,4.63-10.77s7.59,2.69,8.73,7.82c1.13,5.13-.94,9.95-4.63,10.77-3.69.81-7.59-2.69-8.73-7.82h0Z"/>
  </g>
  <g>
    <path class="cls-9" d="M135.77,113.46c-.19-1.09-.92-1.7-1.63-1.38-.71.33-1.14,1.47-.95,2.55.19,1.09.92,1.7,1.63,1.38.71-.33,1.14-1.47.95-2.55h0ZM163.54,97.04c.21.68.55,1.72.69,2.86s.52,3.17.14,3.95c-.37.78-1.19.2-2.18.41-1.14.49-.36.08-2.14.97-1.88.94-5.46,2.98-8.75,4.68-3.66,2.03-7.3,4.2-10.95,6.57-6.14,2.65-5.85,1.31-7.4,1.72-.57-1.42-1.06-3.88-1.07-6.16,1.9-2.16,4.24-4.14,6.92-5.17,3.88-1.06,7.63-2.53,11.33-4.09,2.98-1.31,5.96-2.61,8.94-3.92.63-.46,1.05-.28,2.23-1.33.59-.44,1.07-1.22,1.66-1.69.19.4.36.52.57,1.19h0Z"/>
    <path class="cls-5" d="M162.61,97.87c1.74-2.64,7.58-7.24,11.76-9.98,4.18-2.74,9.9-6.26,13.32-6.44s6.24,2.88,7.2,5.41c.96,2.52.71,7.08-1.44,9.73-2.14,2.65-6.27,4.55-11.42,6.16-5.15,1.61-14.86,1.81-18.1,1-3.24-.81-3.07-3.24-1.33-5.89h0Z"/>
    <g class="cls-11">
      <path class="cls-6" d="M163.27,98.04c2.04-2.32,8.23-6.47,12.58-8.96,4.35-2.49,10.27-5.72,13.51-5.99,3.24-.27,5.44,2.23,5.96,4.35.52,2.12-.41,6.03-2.83,8.37-2.42,2.34-6.59,4.12-11.68,5.69-5.09,1.57-14.26,2.1-17.18,1.52s-2.39-2.66-.36-4.98h0Z"/>
      <g class="cls-3">
        <path class="cls-6" d="M164.17,98.76c2.22-1.82,8.51-5.33,12.85-7.5,4.35-2.17,10.24-5.02,13.23-5.55,2.99-.53,4.58.98,4.71,2.39.13,1.41-1.34,4.21-3.91,6.08-2.57,1.87-6.64,3.53-11.51,5.14-4.87,1.61-13.28,2.93-15.84,2.84-2.56-.09-1.75-1.59.47-3.4h0Z"/>
        <g class="cls-10">
          <path class="cls-5" d="M164.58,100.72c2.4-1.36,8.9-4.61,13.36-6.75,4.45-2.15,10.47-5.02,13.37-6.13,2.9-1.11,4.12-1.03,4-.55-.12.49-1.99,1.99-4.72,3.48s-6.84,3.36-11.69,5.46c-4.85,2.1-12.96,5.17-15.35,5.92-2.39.75-1.36-.06,1.03-1.42h0Z"/>
        </g>
      </g>
    </g>
  </g>
  <text/>
  <path class="cls-8" d="M46.65,24.54c6.68-4.81,14.03-8.9,23.22-12.52,8.35-3.29,19.45-7.32,28.96-8.61s18.62-1.83,26.09-.35c6.36,1.26,8.94,2.22,7.58,3.1s-8.37-.14-10.32,4.07c-1.12,2.42,4.01,4.56,2.73,5.44s-6.72-.56-12.45.04c-5.73.6-14.62.43-23.03,2.31s-17.42,5.66-25.43,8.78c-8.02,3.11-14.61,8.57-19.44,11.36-4.83,2.8-6.52,5.42-6.52,5.42-.72-.1,2.21-5.21,3.39-7.04,1.19-1.83,1.83-3.7.72-3.94-.65-.14-6.6,3.94-5.96,2.89.64-1.05,3.16-5.48,8.87-9.63l1.59-1.33Z"/>
  <g>
    <path d="M55.25,181.94c-7.65,0-14.98-.44-22.4-1.35-6.23-9.34-25.04-41.8-15.46-80.28,6.34-25.46,19.86-40.29,30.08-48.25,20.95-16.31,44.73-18.07,53.99-18.07,8.65,0,12.68,1.42,12.9,2.01-.21.42-2.91,1.18-5.52,1.92-9.3,2.64-26.61,7.55-41.42,22.95-18.38,19.11-20.43,36.08-18.92,46.96.84,6.04,4.17,20.97,16.86,28.97,13.97,8.81,26.9,13.33,31.78,14.49,6.31,1.5,8.26,1.69,10.31,1.88,1.51.14,3.07.29,6.52.99,1.61.33,3.48.68,5.49,1.06,6.03,1.15,13.53,2.57,18.81,4.12,6.01,1.76,8.77,2.83,10.99,3.68,1.45.56,2.7,1.04,4.46,1.56,6.48,1.92,14.31,4.96,18.62,6.74-2.9-.27-6.96-.43-11.29-.43-7,0-20.58.41-32.86,3.15-15.74,3.52-21.49,4.02-31.92,4.94-1.79.16-3.72.33-5.85.53-1.79.17-3.68.36-5.67.57-8.04.83-18.04,1.85-29.51,1.85Z"/>
    <path d="M101.46,33.5v1c6.52,0,10.55.83,11.97,1.46-.94.41-2.86.96-4.73,1.49-8.68,2.46-26.74,7.58-41.65,23.08-18.52,19.25-20.58,36.39-19.05,47.37.85,6.11,4.23,21.21,17.09,29.32,14.02,8.84,27.02,13.39,31.93,14.56,6.35,1.51,8.31,1.7,10.38,1.9,1.49.14,3.04.29,6.47.98,1.61.33,3.48.68,5.49,1.06,6.02,1.14,13.51,2.57,18.77,4.11,5.99,1.76,8.74,2.82,10.95,3.67,1.46.56,2.72,1.04,4.5,1.57,5.19,1.54,11.24,3.79,15.64,5.54-2.42-.13-5.23-.21-8.16-.21-7.02,0-20.64.41-32.98,3.17-15.71,3.51-21.44,4.02-31.85,4.93-1.79.16-3.72.33-5.85.53-1.79.17-3.69.36-5.68.57-8.02.82-18.01,1.85-29.46,1.85-7.55,0-14.79-.43-22.11-1.32-5.24-7.9-9.8-17.4-12.87-26.81-5.85-17.96-6.65-35.76-2.39-52.88,6.31-25.32,19.74-40.06,29.9-47.97,20.83-16.22,44.48-17.97,53.68-17.97v-1M101.46,33.5c-13.77,0-35.75,3.74-54.29,18.18-22.1,17.2-28.41,41.11-30.26,48.52-10.2,40.98,11.41,74.55,15.65,80.87,8.16,1.01,15.72,1.38,22.69,1.38,14.28,0,26.04-1.56,35.23-2.42,14.35-1.34,19.3-1.34,37.83-5.48,10.64-2.38,23.14-3.14,32.76-3.14,7.16,0,12.73.42,14.76.93.02,0,.04,0,.05,0,.39,0-12.44-5.4-22-8.23-4.41-1.3-5.48-2.31-15.46-5.24-7.03-2.07-17.8-3.87-24.34-5.19-8.14-1.64-5.86-.26-16.81-2.87-3.93-.93-16.92-5.15-31.63-14.43-13.08-8.25-16.01-24.18-16.63-28.61-3.29-23.6,14.25-41.83,18.78-46.54,20.97-21.8,47.65-22.64,47.07-25.33-.25-1.15-5.45-2.4-13.39-2.4h0Z"/>
  </g>
</svg>